<?xml version="1.0" standalone="no"?>
<!DOCTYPE svg PUBLIC "-//W3C//DTD SVG 20010904//EN"
 "http://www.w3.org/TR/2001/REC-SVG-20010904/DTD/svg10.dtd">
<svg version="1.0" xmlns="http://www.w3.org/2000/svg"
 width="421.000000pt" height="930.000000pt" viewBox="0 0 421.000000 930.000000"
 preserveAspectRatio="xMidYMid meet">
<metadata>
Created by potrace 1.16, written by Peter Selinger 2001-2019
</metadata>
<g transform="translate(0.000000,930.000000) scale(0.100000,-0.100000)"
fill="#000000" stroke="none">
<path d="M2361 9133 c1 -76 5 -178 9 -228 l7 -90 2 73 c0 40 5 71 9 68 5 -3
12 -126 15 -273 9 -360 9 -5713 1 -5927 -6 -145 -9 -166 -21 -151 -10 14 -13
15 -14 4 -3 -24 -6 -91 -7 -168 -2 -58 -5 -72 -14 -63 -23 23 -28 12 -28 -64
0 -63 -3 -75 -15 -70 -19 7 -35 -23 -35 -65 0 -18 -3 -29 -7 -26 -11 12 -32
-27 -33 -60 0 -26 -4 -33 -19 -33 -14 0 -21 -10 -26 -36 -4 -23 -13 -38 -25
-41 -10 -3 -20 -15 -22 -27 -2 -13 -11 -22 -25 -24 -21 -3 -24 -7 -23 -29 1
-5 -14 -10 -32 -13 -23 -4 -32 -10 -30 -21 2 -13 -9 -18 -44 -24 -39 -5 -45
-9 -41 -26 5 -18 -1 -19 -74 -19 -46 0 -79 -4 -79 -10 0 -5 7 -10 15 -10 8 0
15 -4 15 -9 0 -8 -114 -20 -235 -23 -41 -1 -54 -3 -32 -5 20 -2 37 -8 37 -14
0 -15 -158 -16 -170 -1 -7 10 -70 10 -70 0 0 -4 -49 -8 -110 -8 -60 0 -110 3
-110 8 0 4 -29 6 -65 5 -36 -1 -65 2 -65 7 0 6 -9 10 -20 10 -11 0 -20 5 -20
10 0 6 -4 10 -10 10 -5 0 -10 -7 -10 -15 0 -9 9 -15 25 -15 39 0 29 -18 -17
-31 -79 -21 -278 8 -212 31 10 4 -28 9 -85 13 -96 5 -133 14 -103 24 35 13 3
23 -73 23 -77 0 -85 2 -85 19 0 16 -11 20 -68 27 -55 7 -66 12 -64 26 2 14 -8
18 -60 20 -54 3 -63 6 -60 21 2 14 -5 17 -48 17 l-50 0 0 -840 0 -840 31 0
c26 0 30 -3 26 -20 -5 -21 11 -26 93 -32 23 -2 35 -8 35 -18 0 -12 16 -16 74
-18 67 -3 73 -5 68 -22 -5 -19 0 -20 71 -20 78 0 107 -9 107 -32 0 -9 23 -14
78 -16 46 -2 75 -7 72 -12 -4 -6 255 -10 705 -10 451 0 709 4 705 10 -3 5 28
10 77 12 48 2 82 7 81 13 -4 26 22 35 104 35 72 0 84 2 74 14 -16 19 6 26 79
26 32 0 62 5 65 10 3 6 1 10 -5 10 -6 0 -8 5 -5 10 3 6 26 10 50 10 54 0 75 8
69 25 -8 19 12 28 63 27 39 -1 43 1 38 18 -5 15 0 20 27 25 19 4 40 5 48 3 9
-2 14 3 12 11 -4 19 28 40 61 41 16 0 27 5 27 14 0 15 21 26 51 26 11 0 24 11
31 25 8 18 19 25 38 25 19 0 29 6 33 20 4 15 14 20 36 20 24 0 31 4 31 19 0
15 8 21 33 23 24 2 32 8 32 23 0 14 8 21 28 23 19 2 27 9 27 22 0 13 8 20 28
22 19 2 26 8 24 21 -2 12 5 19 26 23 19 4 29 12 28 22 -1 10 8 18 22 20 14 2
22 10 22 22 0 12 8 20 23 22 14 2 23 11 25 24 2 12 12 24 23 27 11 3 19 14 19
27 0 17 5 21 19 17 20 -5 36 17 25 35 -3 5 3 12 15 15 12 3 21 13 21 23 0 12
9 20 23 22 14 2 23 11 25 26 2 15 10 22 25 22 15 0 18 3 9 9 -10 6 -10 10 3
21 8 7 15 21 15 32 0 11 9 22 20 25 13 3 20 14 20 29 0 17 5 22 20 19 20 -4
21 -2 24 60 1 11 11 24 24 30 13 6 22 19 22 32 0 34 11 53 31 53 12 0 16 5 13
15 -4 8 -1 22 6 30 7 8 10 22 6 30 -4 10 1 15 14 15 16 0 21 10 26 50 4 28 9
48 12 45 14 -14 32 22 32 66 0 47 15 73 30 49 9 -15 20 37 20 99 0 25 5 53 10
61 8 12 10 10 10 -10 0 -20 2 -22 10 -10 5 8 10 55 10 103 0 80 2 89 20 94 18
5 20 14 20 88 0 51 6 96 15 116 10 25 15 29 15 14 l1 -20 9 20 c5 11 9 756 10
1655 1 922 5 1626 10 1615 5 -11 9 828 9 1918 l1 1937 -920 0 -920 0 1 -137z"/>
</g>
</svg>
