<?xml version="1.0" encoding="UTF-8" standalone="no"?>
<!-- Created with Inkscape (http://www.inkscape.org/) -->

<svg
   xmlns:dc="http://purl.org/dc/elements/1.1/"
   xmlns:cc="http://creativecommons.org/ns#"
   xmlns:rdf="http://www.w3.org/1999/02/22-rdf-syntax-ns#"
   xmlns:svg="http://www.w3.org/2000/svg"
   xmlns="http://www.w3.org/2000/svg"
   xmlns:sodipodi="http://sodipodi.sourceforge.net/DTD/sodipodi-0.dtd"
   xmlns:inkscape="http://www.inkscape.org/namespaces/inkscape"
   id="svg2"
   version="1.1"
   inkscape:version="0.48.4 r9939"
   width="601.4574"
   height="572.13013"
   sodipodi:docname="revolutionary_cinema.png">
  <metadata
     id="metadata8">
    <rdf:RDF>
      <cc:Work
         rdf:about="">
        <dc:format>image/svg+xml</dc:format>
        <dc:type
           rdf:resource="http://purl.org/dc/dcmitype/StillImage" />
        <dc:title></dc:title>
      </cc:Work>
    </rdf:RDF>
  </metadata>
  <defs
     id="defs6" />
  <sodipodi:namedview
     pagecolor="#ffffff"
     bordercolor="#666666"
     borderopacity="1"
     objecttolerance="10"
     gridtolerance="10"
     guidetolerance="10"
     inkscape:pageopacity="0"
     inkscape:pageshadow="2"
     inkscape:window-width="1280"
     inkscape:window-height="749"
     id="namedview4"
     showgrid="false"
     inkscape:snap-bbox="true"
     fit-margin-top="0"
     fit-margin-left="0"
     fit-margin-right="0"
     fit-margin-bottom="0"
     inkscape:zoom="0.25410595"
     inkscape:cx="420.72511"
     inkscape:cy="756.44355"
     inkscape:window-x="0"
     inkscape:window-y="26"
     inkscape:window-maximized="1"
     inkscape:current-layer="svg2">
    <inkscape:grid
       type="xygrid"
       id="grid2995"
       empspacing="5"
       visible="true"
       enabled="true"
       snapvisiblegridlinesonly="true"
       originx="-170.0288px"
       originy="-5.01859px" />
  </sodipodi:namedview>
  <path
     style="fill:#ff0000;fill-rule:evenodd;stroke:none"
     d="m 35.4183,226.66789 164.58574,118.82323 -62.99179,192.9477 39.9718,-29.23001 -12.25274,-3.95429 9.21387,-28.55003 32.98124,10.64393 93.9481,-68.68425 164.05894,119.5398 -63.28709,-192.88478 164.39273,-119.07807 -202.99224,0.59003 -35.87875,-110.94403 -0.13437,0.41636 -33.30838,-10.74951 9.21385,-28.550043 13.02596,4.20382 L 300.59734,33.691287 238.42866,226.93748 35.4183,226.66789 z m 147.74074,221.48655 9.21386,-28.55005 33.30838,10.74952 -9.21386,28.55004 -33.30838,-10.74951 z m 18.42772,-57.10007 9.21386,-28.55004 33.30838,10.7495 -9.21387,28.55004 -33.30837,-10.7495 z m 18.42771,-57.10009 9.21386,-28.55004 33.30839,10.74951 -9.21386,28.55004 -33.30839,-10.74951 z m 18.42773,-57.10007 9.21386,-28.55004 33.30838,10.74951 -9.21386,28.55002 -33.30838,-10.74949 z m 18.42772,-57.10008 9.21387,-28.55004 33.30837,10.7495 -9.21386,28.55004 -33.30838,-10.7495 z m 18.42772,-57.10009 9.21386,-28.55003 33.30838,10.7495 -9.21386,28.55004 -33.30838,-10.74951 z"
     id="path2987"
     inkscape:connector-curvature="0" />
</svg>
